<svg xmlns="http://www.w3.org/2000/svg" viewBox="0 0 32 32">
  <defs>
    <linearGradient id="g" x1="0" y1="0" x2="1" y2="1">
      <stop offset="0" stop-color="#7c5cff"/>
      <stop offset="1" stop-color="#22d3ee"/>
    </linearGradient>
  </defs>
  <rect width="32" height="32" rx="7" fill="url(#g)"/>
  <path fill="#fff" d="M11 7a3 3 0 0 0-3 3 3 3 0 0 0-2 2.8A3 3 0 0 0 7 18v1a3 3 0 0 0 4 2.8V24a1 1 0 0 0 2 0V8a1 1 0 0 0-2-1zm10 0a1 1 0 0 0-2 1v16a1 1 0 0 0 2 0v-2.2A3 3 0 0 0 25 19v-1a3 3 0 0 0 1-5.2A3 3 0 0 0 24 10a3 3 0 0 0-3-3z"/>
</svg>
