<svg xmlns="http://www.w3.org/2000/svg" viewBox="0 0 32 32">
  <defs>
    <linearGradient id="tile" x1="0" y1="0" x2="1" y2="1">
      <stop offset="0" stop-color="#9a7cff"/>
      <stop offset="0.5" stop-color="#7c5cff"/>
      <stop offset="1" stop-color="#22d3ee"/>
    </linearGradient>
    <linearGradient id="gloss" x1="0" y1="0" x2="0" y2="1">
      <stop offset="0" stop-color="#ffffff" stop-opacity="0.32"/>
      <stop offset="0.5" stop-color="#ffffff" stop-opacity="0"/>
    </linearGradient>
    <linearGradient id="pfill" x1="0" y1="0" x2="0" y2="1">
      <stop offset="0" stop-color="#ffffff"/>
      <stop offset="1" stop-color="#eaf2ff"/>
    </linearGradient>
    <filter id="soft" x="-20%" y="-20%" width="140%" height="140%">
      <feDropShadow dx="0" dy="0.6" stdDeviation="0.5" flood-color="#0a0a1a" flood-opacity="0.25"/>
    </filter>
  </defs>

  <rect width="32" height="32" rx="8" fill="url(#tile)"/>
  <rect width="32" height="32" rx="8" fill="url(#gloss)"/>
  <rect x="0.5" y="0.5" width="31" height="31" rx="7.6" fill="none" stroke="#ffffff" stroke-opacity="0.18"/>

  <path fill="url(#pfill)" fill-rule="evenodd" filter="url(#soft)"
        d="M10 8 H18.5 A6 6 0 0 1 18.5 20 H14 V25 H10 Z M14 11.5 H17.5 A2.5 2.5 0 0 1 17.5 16.5 H14 Z"/>

  <!-- AI spark accent -->
  <path fill="#ffffff" d="M23.6 7.2 L24.3 9.1 L26.2 9.8 L24.3 10.5 L23.6 12.4 L22.9 10.5 L21 9.8 L22.9 9.1 Z"/>
</svg>
